Coordinates
version=1
nRows=22
nColumns=26
inDegrees=yes

Units are S.I. units (second, meters, Newtons, ...)
If the header above contains a line with 'inDegrees', this indicates whether rotational values are in degrees (yes) or radians (no).

endheader
time	pelvis_tilt	pelvis_list	pelvis_rotation	pelvis_tx	pelvis_ty	pelvis_tz	hip_flexion_r	hip_adduction_r	hip_rotation_r	knee_angle_r	knee_angle_r_beta	ankle_angle_r	subtalar_angle_r	mtp_angle_r	hip_flexion_l	hip_adduction_l	hip_rotation_l	knee_angle_l	knee_angle_l_beta	ankle_angle_l	subtalar_angle_l	mtp_angle_l	lumbar_extension	lumbar_bending	lumbar_rotation
      0.86800000	     -4.89340036	     -8.39538471	     -7.58788736	      1.06146646	      0.97157888	      0.18305632	     34.25957182	      5.24658575	    -23.88942041	     30.66460140	      0.53519826	     -2.95040350	      0.00000000	     13.43985229	    -15.44683458	     -1.14505603	     -9.36591149	     92.16147761	      1.60852123	    -10.05697153	      0.00000000	     48.63349252	    -10.31681674	     13.64532508	     -3.96739976
      0.87200000	     -4.50447554	     -8.26433336	     -7.78994641	      1.08744744	      0.96951487	      0.18327671	     32.84803754	      5.36157042	    -22.59735004	     31.69047554	      0.55310314	      1.17290903	      0.00000000	     12.14362778	    -14.62130383	     -1.31645660	     -9.55624351	     95.23396625	      1.66214627	     -8.69655216	      0.00000000	     48.13840373	    -10.85615322	     13.47565189	     -3.04959236
      0.87600000	     -4.26177835	     -7.93967935	     -8.04785352	      1.11323647	      0.96710928	      0.18333527	     31.74322381	      5.25622246	    -21.83597754	     33.24474811	      0.58023031	      4.97060441	      0.00000000	     10.96299170	    -13.52340028	     -1.21417982	     -9.62976545	     98.26783613	      1.71509729	     -7.18985901	      0.00000000	     47.61728160	    -11.24050976	     13.14093574	     -2.10984824
      0.88000000	     -3.97502267	     -7.90180976	     -8.11247207	      1.13903559	      0.96499017	      0.18388845	     30.48420754	      5.58594046	    -20.31103074	     34.67805188	      0.60524618	      8.42261768	      0.00000000	     10.00672070	    -12.43566609	     -1.53140872	     -9.48148427	    101.30246890	      1.76806162	     -5.75978648	      0.00000000	     47.10322153	    -11.68878667	     13.04434881	     -1.26512202
      0.88400000	     -3.90942796	     -8.11704821	     -7.97959594	      1.16394034	      0.96264828	      0.18413745	     29.54561828	      6.06179266	    -19.19531035	     36.14155868	      0.63078920	     11.13033193	      0.00000000	      9.42004241	    -10.92512180	     -2.13628791	     -8.96522576	    104.53835391	      1.82453847	     -4.32319761	      0.00000000	     46.60924416	    -12.01553963	     13.27013643	     -0.57982872
      0.88800000	     -3.63186552	     -8.01779360	     -8.69800164	      1.18830141	      0.96109665	      0.18511765	     28.65440659	      6.44001801	    -17.42391527	     37.99838176	      0.66319687	     13.08781665	      0.00000000	      9.29528778	     -9.59446899	     -2.20681402	     -9.18299724	    107.42981845	      1.87500405	     -3.21772303	      0.00000000	     46.22864743	    -12.81365639	     13.01497624	      0.90986643
      0.89200000	     -3.31067406	     -8.10893034	     -8.92070085	      1.21241402	      0.95966505	      0.18587851	     27.90619609	      6.56062477	    -16.40685360	     40.25759157	      0.70262752	     15.17386198	      0.00000000	      9.25146799	     -8.14061857	     -2.57111540	     -8.83013685	    110.39215848	      1.92670663	     -2.14686056	      0.00000000	     45.88015171	    -13.63949686	     12.95060564	      1.88273248
      0.89600000	     -3.22271616	     -7.95532707	     -9.11758261	      1.23603097	      0.95788353	      0.18662514	     27.54570546	      6.38675518	    -15.34917184	     42.69074759	      0.74509411	     17.60186494	      0.00000000	      9.80900065	     -6.22585063	     -2.62547136	     -8.15787442	    113.36671470	      1.97862243	     -0.78890611	      0.00000000	     45.67766521	    -14.22686468	     12.65999891	      2.79185887
      0.90000000	     -2.76095733	     -7.89729703	     -9.24118579	      1.25991764	      0.95672961	      0.18769822	     26.67720199	      6.25813147	    -14.54103715	     45.25189821	      0.78979462	     20.70691991	      0.00000000	     16.41353997	     -4.66542795	     -2.79426936	     -7.47731544	    116.15747513	      2.02733039	      0.72521727	      0.00000000	     47.52153227	    -15.24029489	     12.31067677	      3.55572152
      0.90400000	     -2.28189359	     -8.05512361	     -9.43023645	      1.28378907	      0.95597769	      0.18852480	     25.53951979	      6.22911233	    -13.99707875	     47.09921493	      0.82203638	     22.04757867	      0.00000000	     16.05883592	     -3.14438006	     -3.16783972	     -6.79647099	    118.68956949	      2.07152378	      1.59102572	      0.00000000	     47.36879200	    -16.41004046	     12.16659763	      4.41343978
      0.90800000	     -1.83605254	     -8.25263017	     -9.65815909	      1.30780083	      0.95561614	      0.18928722	     24.14908165	      6.39805957	    -13.07693184	     48.37572268	      0.84431564	     23.49033026	      0.00000000	     16.00682685	     -1.51473150	     -3.56633175	     -6.02020513	    121.04056087	      2.11255632	      2.70950785	      0.00000000	     47.45138750	    -17.55798032	     12.06526602	      5.25769805
      0.91200000	     -1.49719670	     -8.43579948	     -9.93056896	      1.33188436	      0.95558385	      0.19013810	     22.70756515	      6.61166282	    -12.07275008	     49.38716704	      0.86196867	     24.09891436	      0.00000000	     16.00470121	      0.31044498	     -4.04818016	     -5.23578749	    123.15029774	      2.14937817	      3.27982853	      0.00000000	     47.42898369	    -18.57371260	     11.93038689	      6.00621941
      0.91600000	     -1.48975980	     -8.86003641	    -10.35893534	      1.35675874	      0.95567573	      0.19111019	     21.25323303	      7.22437556	    -10.86738557	     49.84266931	      0.86991869	     25.20526731	      0.00000000	     16.16487324	      2.32768201	     -4.89470204	     -4.52685827	    125.02606585	      2.18211650	      4.53623012	      0.00000000	     47.49937520	    -19.16039507	     12.08740363	      6.92933654
      0.92000000	     -1.66531753	     -9.07677736	    -10.64476356	      1.38157100	      0.95581157	      0.19190569	     19.94556069	      7.57038733	     -9.81181244	     50.23720537	      0.87680464	     26.16084053	      0.00000000	     19.44174845	      4.76776289	     -5.55875438	     -3.66212666	    126.79628937	      2.21301273	      6.91099686	      0.00000000	     51.86133030	    -19.45865225	     12.10410051	      7.70483499
      0.92400000	     -1.84459012	     -9.06880369	    -10.91016229	      1.40657703	      0.95608288	      0.19259429	     18.53971042	      7.60833703	     -8.85651275	     50.29425179	      0.87780029	     26.48012331	      0.00000000	     19.37970357	      7.21284490	     -5.94478957	     -2.72948141	    128.24268554	      2.23825710	      8.21134035	      0.00000000	     51.72174003	    -19.61658647	     11.89680349	      8.42870913
      0.92800000	     -2.06372754	     -8.80015144	    -11.10078855	      1.43172783	      0.95656504	      0.19320603	     17.07903171	      7.33637543	     -8.01509087	     50.05965514	      0.87370580	     26.62167090	      0.00000000	     19.37762874	      9.82414131	     -6.01672779	     -1.84407076	    129.41715798	      2.25875552	      9.54871176	      0.00000000	     51.63244306	    -19.58962692	     11.43549214	      9.07454269
      0.93200000	     -2.36605521	     -8.29602674	    -11.27097656	      1.45691887	      0.95680511	      0.19386109	     15.76338585	      6.75773354	     -7.34932184	     49.93025176	      0.87144729	     26.63819128	      0.00000000	     19.39876399	     12.62996801	     -5.83385096	     -0.93630841	    130.48145943	      2.27733108	     11.35229666	      0.00000000	     51.88875485	    -19.32612630	     10.73899632	      9.71394415
      0.93600000	     -2.66234542	     -7.70113241	    -11.27853334	      1.48242819	      0.95714004	      0.19432826	     14.30517298	      6.07668132	     -6.66414443	     49.43529628	      0.86280869	     26.61519872	      0.00000000	     19.47431273	     15.51158846	     -5.43540966	      0.09608298	    131.37171495	      2.29286897	     13.18028477	      0.00000000	     54.40225471	    -18.90303877	     10.00990127	     10.16195679
      0.94000000	     -2.77497864	     -7.03593254	    -11.19492984	      1.50824775	      0.95784809	      0.19477850	     12.56203577	      5.24809525	     -6.17477328	     48.74829169	      0.85081819	     26.41150063	      0.00000000	     19.66077884	     18.07913923	     -4.88599032	      0.99226258	    131.87391333	      2.30163399	     14.44913264	      0.00000000	     54.20007604	    -18.58430341	      9.15119334	     10.63800567
      0.94400000	     -3.15911661	     -6.24539252	    -11.09614216	      1.53412995	      0.95815088	      0.19526685	     11.17453375	      4.29812081	     -5.75879774	     48.13942163	      0.84019141	     26.07589481	      0.00000000	     20.03428273	     20.95961985	     -4.30983966	      1.79585231	    132.29258103	      2.30894111	     16.17814985	      0.00000000	     54.36043116	    -17.92031071	      8.21100658	     11.15893611
      0.94800000	     -3.41047990	     -5.29142502	    -10.96042539	      1.56005608	      0.95860855	      0.19548450	      9.64265366	      3.09990530	     -5.48735854	     47.41939023	      0.82762449	     25.50209584	      0.00000000	     20.49290240	     23.74075589	     -3.44175664	      2.43228513	    132.45698291	      2.31181047	     17.38843425	      0.00000000	     54.39429011	    -17.33344042	      7.09541623	     11.72243163
      0.95200000	     -3.66490223	     -4.42477477	    -10.71865480	      1.58646689	      0.95917657	      0.19585183	      7.95884026	      2.02503260	     -5.30528500	     46.39033963	      0.80966417	     25.09425110	      0.00000000	     20.90008639	     26.45584715	     -2.71613380	      3.11343202	    132.37920147	      2.31045293	     18.22440519	      0.00000000	     54.34102659	    -16.68539678	      6.03387485	     12.26252998
